<?xml version="1.0" encoding="UTF-8" standalone="no"?>
<svg
   xmlns:dc="http://purl.org/dc/elements/1.1/"
   xmlns:cc="http://creativecommons.org/ns#"
   xmlns:rdf="http://www.w3.org/1999/02/22-rdf-syntax-ns#"
   xmlns:svg="http://www.w3.org/2000/svg"
   xmlns="http://www.w3.org/2000/svg"
   xmlns:sodipodi="http://sodipodi.sourceforge.net/DTD/sodipodi-0.dtd"
   xmlns:inkscape="http://www.inkscape.org/namespaces/inkscape"
   height="32px"
   id="Layer_1"
   style="enable-background:new 0 0 32 32;"
   version="1.1"
   viewBox="0 0 32 32"
   width="32px"
   xml:space="preserve"
   sodipodi:docname="hbm.svg"
   inkscape:version="0.92.4 (5da689c313, 2019-01-14)"><metadata
     id="metadata17"><rdf:RDF><cc:Work
         rdf:about=""><dc:format>image/svg+xml</dc:format><dc:type
           rdf:resource="http://purl.org/dc/dcmitype/StillImage" /></cc:Work></rdf:RDF></metadata><defs
     id="defs15" /><sodipodi:namedview
     pagecolor="#ffffff"
     bordercolor="#666666"
     borderopacity="1"
     objecttolerance="10"
     gridtolerance="10"
     guidetolerance="10"
     inkscape:pageopacity="0"
     inkscape:pageshadow="2"
     inkscape:window-width="1360"
     inkscape:window-height="745"
     id="namedview13"
     showgrid="false"
     inkscape:zoom="17.125"
     inkscape:cx="6.5109489"
     inkscape:cy="16"
     inkscape:window-x="-8"
     inkscape:window-y="760"
     inkscape:window-maximized="1"
     inkscape:current-layer="Layer_1" /><path
     d="M4,10h24c1.104,0,2-0.896,2-2s-0.896-2-2-2H4C2.896,6,2,6.896,2,8S2.896,10,4,10z M28,14H4c-1.104,0-2,0.896-2,2  s0.896,2,2,2h24c1.104,0,2-0.896,2-2S29.104,14,28,14z M28,22H4c-1.104,0-2,0.896-2,2s0.896,2,2,2h24c1.104,0,2-0.896,2-2  S29.104,22,28,22z"
     id="path10" /><path
     style="stroke-width:0.05839416;fill:#0e5078;fill-opacity:1"
     d="M 3.287724,9.8227161 C 2.6854782,9.5745072 2.2796214,9.1178946 2.1035788,8.4904833 1.8560349,7.6082436 2.304619,6.6401251 3.1548076,6.2217579 L 3.4452555,6.0788321 H 16 28.554745 l 0.290447,0.1429258 c 1.500481,0.7383679 1.484743,2.7695843 -0.02767,3.571722 L 28.554745,9.9328467 16.087591,9.9463435 3.620438,9.9598404 Z"
     id="path824"
     inkscape:connector-curvature="0" /><path
     style="fill:#0e5078;fill-opacity:1;stroke-width:0.05839416"
     d="M 3.287724,17.822716 C 2.6854782,17.574507 2.2796214,17.117895 2.1035788,16.490483 1.8560349,15.608244 2.304619,14.640125 3.1548076,14.221758 L 3.4452555,14.078832 H 16 28.554745 l 0.290447,0.142926 c 1.500481,0.738368 1.484743,2.769584 -0.02767,3.571722 l -0.262773,0.139367 -12.467154,0.0135 -12.467153,0.0135 z"
     id="path826"
     inkscape:connector-curvature="0" /><path
     style="fill:#0e5078;fill-opacity:1;stroke-width:0.05839416"
     d="M 3.287724,25.822716 C 2.6854782,25.574507 2.2796214,25.117895 2.1035788,24.490483 1.8560349,23.608244 2.304619,22.640125 3.1548076,22.221758 L 3.4452555,22.078832 H 16 28.554745 l 0.290447,0.142926 c 1.500481,0.738368 1.484743,2.769584 -0.02767,3.571722 l -0.262773,0.139367 -12.467154,0.0135 -12.467153,0.0135 z"
     id="path828"
     inkscape:connector-curvature="0" /></svg>